<?xml version="1.0" encoding="utf-8"?>
<!-- Generator: Adobe Illustrator 16.0.0, SVG Export Plug-In . SVG Version: 6.00 Build 0)  -->
<!DOCTYPE svg PUBLIC "-//W3C//DTD SVG 1.1//EN" "http://www.w3.org/Graphics/SVG/1.1/DTD/svg11.dtd">
<svg version="1.1" id="Capa_1" xmlns="http://www.w3.org/2000/svg" xmlns:xlink="http://www.w3.org/1999/xlink" x="0px" y="0px"
	 width="352px" height="142px" viewBox="0 0 352 142" enable-background="new 0 0 352 142" xml:space="preserve">
<g>
	<path fill="#00FFFF" d="M156.544,60.943c0-3.069-13.52-12.452-33.47-18.983v-8.587c0-1.367-1.104-2.474-2.472-2.474H109.68
		c-1.364,0-2.473,1.106-2.473,2.474c0,1.365,1.108,2.472,2.473,2.472h8.449v4.601c-10.63-3.052-22.763-5.183-35.489-5.183
		c-41.63,0-60.483,15.632-60.483,20.378c0,2.432,1.615,4.02,2.681,5.068c0.073,0.074,0.154,0.152,0.236,0.234
		c-0.082,0.08-0.163,0.16-0.236,0.234c-1.066,1.048-2.681,2.636-2.681,5.071c0,2.117,3.765,6.398,11.615,10.493
		c-1.494,3.119-2.353,6.596-2.353,10.277c0,13.186,10.728,23.914,23.912,23.914c13.184,0,23.913-10.729,23.913-23.914
		c0-0.146-0.022-0.29-0.022-0.438c1.123,0.024,2.26,0.042,3.417,0.042c4.898,0,9.704-0.318,14.376-0.878
		c-0.023,0.423-0.065,0.844-0.065,1.274c0,13.186,10.727,23.914,23.905,23.914c13.192,0,23.923-10.729,23.923-23.914
		c0-5.243-1.717-10.082-4.589-14.025C150.354,67.979,156.544,63.018,156.544,60.943 M27.192,65.98
		c0.206-0.381,0.737-0.904,1.114-1.277c0.879-0.863,1.97-1.94,1.97-3.54c0-0.073-0.001-0.146-0.009-0.22
		c0.008-0.074,0.009-0.146,0.009-0.221c0-1.6-1.091-2.676-1.97-3.538c-0.377-0.373-0.908-0.896-1.114-1.277
		c2.063-2.866,17.886-15.699,55.448-15.699c13.325,0,25.342,2.253,35.489,5.32v2.173L88.632,75.31L69.753,56.174v-7.06h8.728
		c1.369,0,2.473-1.106,2.473-2.474c0-1.365-1.104-2.472-2.473-2.472H64.463c-1.366,0-2.473,1.106-2.473,2.472
		c0,1.367,1.107,2.474,2.473,2.474h0.344v5.601H45.433c-0.792,0-1.539,0.381-2.001,1.026c-0.467,0.644-0.595,1.472-0.344,2.226
		l2.415,7.276c-3.624,1.644-6.754,4.159-9.146,7.28C30.9,69.729,27.994,67.097,27.192,65.98 M123.074,68.191
		c3.158,0.371,6.075,1.512,8.563,3.237c-2.636,1.137-5.498,2.259-8.563,3.321V68.191z M118.129,76.357
		c-4.575,1.382-9.54,2.594-14.827,3.515c2.499-6.114,8.096-10.628,14.827-11.601V76.357z M55.833,79.12
		c-0.19-0.042-0.368-0.084-0.559-0.124l-3.512-10.597c1.155-0.222,2.349-0.349,3.57-0.349c1.625,0,3.188,0.227,4.692,0.611
		L55.833,79.12z M64.617,70.496c4.178,2.357,7.385,6.246,8.831,10.903c-4.595-0.274-8.812-0.746-12.653-1.365L64.617,70.496z
		 M49.6,77.595c-3.252-0.914-6.116-1.921-8.614-2.946c1.682-1.945,3.749-3.541,6.087-4.677L49.6,77.595z M55.332,63.105
		c-1.765,0-3.481,0.205-5.139,0.571L48.86,59.66h14.77l-1.755,4.378C59.792,63.444,57.604,63.105,55.332,63.105 M74.298,87.02
		c0,10.46-8.511,18.969-18.967,18.969c-10.458,0-18.968-8.509-18.968-18.969c0-2.929,0.689-5.694,1.878-8.172
		c3.721,1.588,8.123,3.076,13.208,4.319l1.537,4.631c0.325,0.982,1.234,1.661,2.272,1.691c0.024,0.004,0.05,0.004,0.076,0.004
		c1.006,0,1.917-0.613,2.292-1.554l1.292-3.225c4.648,0.798,9.765,1.383,15.348,1.682C74.272,86.605,74.298,86.81,74.298,87.02
		 M82.64,81.678c-1.372,0-2.713-0.021-4.033-0.056c-1.583-6.83-6.092-12.549-12.14-15.748l1.707-4.26l18.627,18.885
		c0.943,0.952,2.473,0.982,3.45,0.068l27.879-26.089v8.794c-9.773,1.118-17.757,8.154-20.301,17.429
		C92.991,81.317,87.921,81.678,82.64,81.678 M139.833,87.02c0,10.46-8.512,18.969-18.977,18.969
		c-10.454,0-18.959-8.509-18.959-18.969c0-0.669,0.036-1.329,0.103-1.98c5.653-0.905,11.063-2.143,16.129-3.598v5.296
		c0,1.365,1.108,2.474,2.473,2.474c1.367,0,2.472-1.108,2.472-2.474v-6.812c4.548-1.491,8.748-3.125,12.545-4.799
		C138.249,78.381,139.833,82.516,139.833,87.02 M136.668,69.123c-3.697-3.271-8.4-5.424-13.594-5.905V47.134
		c14.119,4.903,23.899,11.073,27.478,13.81C148.276,62.683,143.479,65.813,136.668,69.123"/>
	<path fill="#00FFFF" d="M89.434,129.439c-2.394,0-4.787-0.806-6.403-2.417c-2.429-2.41-7.376-2.41-9.803,0
		c-0.642,0.639-1.411,1.164-2.292,1.562c-0.536,0.242-1.166,0.004-1.408-0.531c-0.243-0.535-0.004-1.167,0.531-1.409
		c0.646-0.291,1.206-0.672,1.666-1.131c3.231-3.209,9.575-3.209,12.811,0c2.427,2.42,7.37,2.422,9.797,0
		c3.229-3.211,9.573-3.211,12.804,0c0.422,0.423,0.938,0.782,1.534,1.068c0.528,0.257,0.75,0.895,0.493,1.425
		c-0.256,0.527-0.894,0.75-1.423,0.493c-0.808-0.393-1.517-0.89-2.105-1.477c-2.426-2.41-7.373-2.412-9.801,0
		C94.219,128.634,91.826,129.439,89.434,129.439"/>
</g>
<g>
	<path fill="#FFFFFF" d="M177.445,69.96c-3.201,0-5.686-0.842-5.686-0.842V63.77c0,0,3.454,0.885,5.012,0.885
		c1.853,0,3.37-0.632,3.37-2.99c0-1.685-0.969-2.527-2.359-3.748l-2.232-1.938c-1.811-1.559-3.833-3.706-3.833-7.834
		c0-6.653,4.843-8.507,8.928-8.507c3.327,0,5.517,0.927,5.517,0.927v5.18c0,0-2.652-0.926-4.885-0.926
		c-1.769,0-2.948,0.884-2.948,2.905c0,1.812,1.053,2.611,2.4,3.748l2.063,1.728c2.064,1.727,4.043,3.874,4.043,8.212
		C186.836,68.782,181.951,69.96,177.445,69.96z"/>
	<path fill="#FFFFFF" d="M198.499,69.96c-6.064,0-9.055-2.147-9.055-8.591V40.059h6.696v22.068c0,1.896,0.547,2.737,2.358,2.737
		c1.601,0,2.358-0.884,2.358-2.737V40.059h6.696V61.37C207.554,67.644,204.353,69.96,198.499,69.96z"/>
	<path fill="#FFFFFF" d="M222.626,69.54l-0.969-6.738c-0.379-2.695-0.884-4.464-1.643-5.223l-1.643,0.169V69.54h-6.696v-29.48h8.465
		c5.434,0,9.182,1.391,9.182,8.508c0,3.916-1.559,6.19-4.001,7.496c1.685,0.842,2.569,3.453,3.116,6.443l1.306,7.033H222.626z
		 M219.636,44.819h-1.264v8.591c3.243-0.295,4.254-0.969,4.254-4.759C222.626,45.408,221.657,44.819,219.636,44.819z"/>
	<path fill="#FFFFFF" d="M246.458,45.493h-7.159v6.148h6.949v4.928h-6.949V69.54h-6.696v-29.48h14.698L246.458,45.493z"/>
	<path fill="#CCCCCC" d="M179.551,93.691v8.928h-6.696v-29.48h7.412c6.907,0,9.854,2.443,9.854,10.107
		C190.121,90.912,186.373,93.48,179.551,93.691z M180.604,77.856h-1.053v11.455c3.58-0.379,4-1.936,4-6.064
		C183.551,78.825,182.709,77.856,180.604,77.856z"/>
	<path fill="#CCCCCC" d="M203.384,102.619l-0.927-5.559h-5.98l-0.926,5.559h-6.991l6.991-29.48h7.875l6.949,29.48H203.384z
		 M200.814,85.773c-0.421-2.82-1.348-9.433-1.348-9.433s-0.885,6.654-1.305,9.433l-0.969,6.359h4.548L200.814,85.773z"/>
	<path fill="#CCCCCC" d="M222.836,102.619l-0.969-6.738c-0.379-2.695-0.884-4.463-1.643-5.223l-1.642,0.17v11.791h-6.696v-29.48
		h8.465c5.433,0,9.181,1.391,9.181,8.507c0,3.916-1.558,6.191-4.001,7.496c1.686,0.842,2.569,3.453,3.117,6.443l1.305,7.033H222.836
		z M219.846,77.899h-1.263v8.591c3.243-0.295,4.253-0.969,4.253-4.76C222.836,78.488,221.867,77.899,219.846,77.899z"/>
	<path fill="#CCCCCC" d="M244.9,102.619l-0.926-5.559h-5.98l-0.927,5.559h-6.991l6.991-29.48h7.876l6.948,29.48H244.9z
		 M242.332,85.773c-0.422-2.82-1.348-9.433-1.348-9.433s-0.885,6.654-1.306,9.433l-0.969,6.359h4.548L242.332,85.773z"/>
	<path fill="#CCCCCC" d="M260.605,102.619h-7.201v-29.48h7.201c5.812,0,11.286,1.475,11.286,14.531
		C271.892,100.893,266.796,102.619,260.605,102.619z M261.068,78.194H260.1v19.289h0.758c3.117,0,4.338-1.223,4.338-9.813
		C265.195,79.331,263.722,78.194,261.068,78.194z"/>
	<path fill="#CCCCCC" d="M275.173,102.619v-29.48h6.78v29.48H275.173z"/>
	<path fill="#CCCCCC" d="M290.795,103.041c-3.201,0-5.686-0.842-5.686-0.842v-5.35c0,0,3.453,0.885,5.012,0.885
		c1.853,0,3.369-0.631,3.369-2.99c0-1.684-0.969-2.527-2.359-3.748l-2.231-1.938c-1.812-1.559-3.833-3.705-3.833-7.834
		c0-6.653,4.844-8.506,8.929-8.506c3.327,0,5.517,0.927,5.517,0.927v5.18c0,0-2.652-0.926-4.885-0.926
		c-1.77,0-2.948,0.884-2.948,2.906c0,1.811,1.053,2.611,2.4,3.748l2.063,1.727c2.064,1.727,4.043,3.875,4.043,8.213
		C300.186,101.861,295.301,103.041,290.795,103.041z"/>
	<path fill="#CCCCCC" d="M316.986,78.53h-7.581v6.191h6.949v4.928h-6.949v7.58h8.002v5.391h-14.698v-29.48h14.908L316.986,78.53z"/>
</g>
</svg>
