<?xml version="1.0" encoding="utf-8"?>
<!-- Generator: Adobe Illustrator 16.0.0, SVG Export Plug-In . SVG Version: 6.00 Build 0)  -->
<!DOCTYPE svg PUBLIC "-//W3C//DTD SVG 1.1//EN" "http://www.w3.org/Graphics/SVG/1.1/DTD/svg11.dtd">
<svg version="1.1" id="Capa_1" xmlns="http://www.w3.org/2000/svg" xmlns:xlink="http://www.w3.org/1999/xlink" x="0px" y="0px"
	 width="159.65px" height="168.332px" viewBox="0 0 159.65 168.332" enable-background="new 0 0 159.65 168.332"
	 xml:space="preserve">
<g>
	<g>
		<path fill="#00FFFF" d="M125.866,36.732c0-2.102-9.265-8.531-22.934-13.006v-5.885c0-0.938-0.757-1.695-1.693-1.695h-7.484
			c-0.935,0-1.694,0.758-1.694,1.695c0,0.936,0.76,1.695,1.694,1.695h5.789v3.15c-7.283-2.092-15.597-3.551-24.316-3.551
			c-28.525,0-41.443,10.709-41.443,13.963c0,1.666,1.106,2.754,1.837,3.473c0.051,0.051,0.106,0.105,0.162,0.16
			c-0.056,0.055-0.111,0.109-0.162,0.16c-0.731,0.719-1.837,1.807-1.837,3.475c0,1.451,2.58,4.385,7.959,7.191
			c-1.023,2.137-1.612,4.518-1.612,7.041c0,9.035,7.351,16.385,16.385,16.385c9.033,0,16.386-7.35,16.386-16.385
			c0-0.1-0.016-0.199-0.016-0.301c0.77,0.018,1.549,0.029,2.342,0.029c3.356,0,6.648-0.217,9.851-0.602
			c-0.017,0.291-0.046,0.578-0.046,0.873c0,9.035,7.351,16.385,16.381,16.385c9.039,0,16.392-7.35,16.392-16.385
			c0-3.59-1.176-6.908-3.145-9.609C121.624,41.555,125.866,38.154,125.866,36.732 M37.235,40.186
			c0.141-0.264,0.504-0.621,0.762-0.877c0.603-0.592,1.351-1.328,1.351-2.426c0-0.049-0.001-0.1-0.006-0.15
			c0.005-0.049,0.006-0.102,0.006-0.15c0-1.098-0.748-1.834-1.351-2.424c-0.258-0.258-0.622-0.615-0.762-0.877
			c1.413-1.963,12.255-10.758,37.993-10.758c9.13,0,17.364,1.545,24.316,3.646v1.49L79.333,46.578L66.397,33.465v-4.838h5.98
			c0.938,0,1.693-0.758,1.693-1.693c0-0.938-0.756-1.695-1.693-1.695h-9.605c-0.936,0-1.695,0.758-1.695,1.695
			c0,0.936,0.759,1.693,1.695,1.693h0.236v3.838H49.733c-0.543,0-1.055,0.262-1.372,0.703c-0.319,0.441-0.407,1.008-0.235,1.525
			l1.655,4.986c-2.483,1.125-4.628,2.85-6.267,4.988C39.775,42.752,37.784,40.949,37.235,40.186 M102.933,41.699
			c2.164,0.254,4.162,1.035,5.867,2.219c-1.805,0.777-3.767,1.547-5.867,2.275V41.699z M99.544,47.293
			c-3.134,0.949-6.536,1.777-10.159,2.41c1.712-4.189,5.548-7.283,10.159-7.947V47.293z M56.858,49.186
			c-0.13-0.027-0.251-0.057-0.383-0.082l-2.406-7.262c0.792-0.15,1.609-0.238,2.446-0.238c1.113,0,2.184,0.154,3.215,0.418
			L56.858,49.186z M62.878,43.277c2.863,1.617,5.06,4.281,6.05,7.473c-3.147-0.189-6.037-0.512-8.669-0.936L62.878,43.277z
			 M52.588,48.143c-2.229-0.627-4.19-1.318-5.902-2.018c1.152-1.336,2.569-2.428,4.17-3.205L52.588,48.143z M56.516,38.213
			c-1.209,0-2.385,0.143-3.521,0.391l-0.913-2.75h10.12l-1.202,3C59.571,38.445,58.072,38.213,56.516,38.213 M69.512,54.6
			c0,7.166-5.832,12.998-12.996,12.998c-7.166,0-12.997-5.832-12.997-12.998c0-2.006,0.472-3.9,1.287-5.6
			c2.55,1.09,5.565,2.107,9.049,2.959l1.053,3.174c0.223,0.676,0.846,1.139,1.557,1.16c0.016,0.002,0.034,0.002,0.052,0.002
			c0.689,0,1.313-0.42,1.571-1.064l0.884-2.209c3.185,0.547,6.691,0.947,10.516,1.15C69.493,54.316,69.512,54.455,69.512,54.6
			 M75.228,50.939c-0.94,0-1.859-0.014-2.765-0.037c-1.084-4.682-4.173-8.6-8.318-10.791l1.169-2.92l12.764,12.939
			c0.646,0.652,1.694,0.674,2.364,0.047l19.102-17.875v6.025c-6.696,0.766-12.167,5.588-13.91,11.941
			C82.319,50.693,78.846,50.939,75.228,50.939 M114.416,54.6c0,7.166-5.833,12.998-13.003,12.998
			c-7.163,0-12.991-5.832-12.991-12.998c0-0.459,0.025-0.91,0.07-1.357c3.874-0.619,7.58-1.469,11.052-2.463v3.627
			c0,0.938,0.76,1.695,1.695,1.695c0.937,0,1.693-0.758,1.693-1.695v-4.668c3.116-1.02,5.994-2.141,8.597-3.287
			C113.329,48.682,114.416,51.514,114.416,54.6 M112.247,42.336c-2.534-2.24-5.756-3.715-9.314-4.047V27.27
			c9.674,3.361,16.375,7.59,18.828,9.463C120.201,37.924,116.914,40.068,112.247,42.336"/>
		<path fill="#00FFFF" d="M79.882,83.666c-1.64,0-3.279-0.553-4.387-1.656c-1.665-1.652-5.055-1.652-6.718,0.002
			c-0.439,0.436-0.967,0.795-1.571,1.068c-0.367,0.166-0.799,0.002-0.964-0.365c-0.167-0.365-0.003-0.799,0.363-0.965
			c0.442-0.199,0.826-0.461,1.142-0.775c2.214-2.197,6.562-2.197,8.778,0c1.662,1.658,5.05,1.66,6.712,0
			c2.214-2.199,6.56-2.199,8.773,0c0.29,0.289,0.643,0.537,1.051,0.732c0.362,0.176,0.514,0.613,0.339,0.977
			c-0.176,0.361-0.612,0.514-0.976,0.336c-0.553-0.268-1.039-0.607-1.442-1.01c-1.662-1.652-5.052-1.652-6.716,0.002
			C83.161,83.113,81.521,83.666,79.882,83.666"/>
	</g>
	<g>
		<path fill="#FFFFFF" d="M57.592,117.034c-1.961,0-3.483-0.516-3.483-0.516v-3.277c0,0,2.116,0.542,3.071,0.542
			c1.135,0,2.064-0.387,2.064-1.832c0-1.032-0.593-1.548-1.445-2.296l-1.368-1.188c-1.109-0.954-2.348-2.271-2.348-4.799
			c0-4.077,2.967-5.213,5.47-5.213c2.039,0,3.38,0.568,3.38,0.568v3.174c0,0-1.625-0.568-2.993-0.568
			c-1.084,0-1.806,0.542-1.806,1.78c0,1.11,0.645,1.601,1.471,2.297l1.264,1.058c1.265,1.059,2.477,2.374,2.477,5.032
			C63.346,116.312,60.353,117.034,57.592,117.034z"/>
		<path fill="#FFFFFF" d="M70.496,117.034c-3.716,0-5.547-1.315-5.547-5.264V98.715h4.102v13.521c0,1.161,0.336,1.677,1.445,1.677
			c0.98,0,1.445-0.542,1.445-1.677V98.715h4.103v13.056C76.044,115.615,74.083,117.034,70.496,117.034z"/>
		<path fill="#FFFFFF" d="M85.284,116.776l-0.593-4.128c-0.232-1.652-0.542-2.735-1.007-3.2l-1.006,0.104v7.225h-4.103V98.715h5.186
			c3.329,0,5.625,0.852,5.625,5.212c0,2.399-0.954,3.793-2.451,4.593c1.032,0.516,1.574,2.116,1.909,3.948l0.801,4.309H85.284z
			 M83.452,101.63h-0.773v5.264c1.986-0.181,2.605-0.593,2.605-2.915C85.284,101.991,84.691,101.63,83.452,101.63z"/>
		<path fill="#FFFFFF" d="M99.891,102.043h-4.386v3.768h4.257v3.019h-4.257v7.947h-4.103V98.715h9.005L99.891,102.043z"/>
		<path fill="#CCCCCC" d="M40.39,131.583v5.47h-4.103v-18.062h4.542c4.231,0,6.038,1.496,6.038,6.192S44.57,131.453,40.39,131.583z
			 M41.035,121.881H40.39v7.019c2.193-0.232,2.451-1.188,2.451-3.716C42.841,122.475,42.326,121.881,41.035,121.881z"/>
		<path fill="#CCCCCC" d="M54.998,137.053l-0.568-3.406h-3.664l-0.567,3.406h-4.283l4.283-18.062h4.825l4.258,18.062H54.998z
			 M53.423,126.731c-0.258-1.729-0.826-5.779-0.826-5.779s-0.542,4.076-0.8,5.779l-0.594,3.896h2.787L53.423,126.731z"/>
		<path fill="#CCCCCC" d="M66.921,137.053l-0.593-4.129c-0.232-1.65-0.542-2.734-1.007-3.199l-1.006,0.104v7.225h-4.103v-18.062
			h5.187c3.329,0,5.625,0.852,5.625,5.212c0,2.399-0.954,3.793-2.451,4.593c1.032,0.516,1.574,2.116,1.909,3.948l0.801,4.309H66.921
			z M65.089,121.906h-0.774v5.264c1.987-0.181,2.606-0.593,2.606-2.915C66.921,122.268,66.328,121.906,65.089,121.906z"/>
		<path fill="#CCCCCC" d="M80.445,137.053l-0.568-3.406h-3.663l-0.568,3.406h-4.283l4.283-18.062h4.825l4.258,18.062H80.445z
			 M78.871,126.731c-0.258-1.729-0.825-5.779-0.825-5.779s-0.542,4.076-0.801,5.779l-0.593,3.896h2.786L78.871,126.731z"/>
		<path fill="#CCCCCC" d="M90.073,137.053h-4.412v-18.062h4.412c3.561,0,6.915,0.902,6.915,8.901
			C96.988,135.995,93.866,137.053,90.073,137.053z M90.356,122.087h-0.593v11.818h0.464c1.909,0,2.658-0.749,2.658-6.013
			C92.886,122.784,91.982,122.087,90.356,122.087z"/>
		<path fill="#CCCCCC" d="M99.004,137.053v-18.062h4.153v18.062H99.004z"/>
		<path fill="#CCCCCC" d="M108.578,137.311c-1.962,0-3.483-0.516-3.483-0.516v-3.277c0,0,2.115,0.542,3.07,0.542
			c1.135,0,2.064-0.387,2.064-1.832c0-1.032-0.594-1.548-1.445-2.296l-1.367-1.188c-1.11-0.954-2.349-2.271-2.349-4.799
			c0-4.077,2.968-5.213,5.471-5.213c2.038,0,3.38,0.568,3.38,0.568v3.174c0,0-1.626-0.568-2.993-0.568
			c-1.084,0-1.807,0.542-1.807,1.78c0,1.11,0.646,1.601,1.471,2.297l1.265,1.058c1.265,1.059,2.478,2.374,2.478,5.032
			C114.332,136.588,111.339,137.311,108.578,137.311z"/>
		<path fill="#CCCCCC" d="M124.63,122.294h-4.645v3.793h4.257v3.019h-4.257v4.645h4.902v3.303h-9.005v-18.062h9.134L124.63,122.294z
			"/>
	</g>
</g>
</svg>
